<?xml version="1.0" encoding="UTF-8"?>
<svg xmlns="http://www.w3.org/2000/svg" xmlns:xlink="http://www.w3.org/1999/xlink" width="36pt" height="36.000001pt" viewBox="0 0 36 36.000001" version="1.2">
<defs>
<clipPath id="clip1">
  <path d="M 4 6.742188 L 31.71875 6.742188 L 31.71875 28.632812 L 4 28.632812 Z M 4 6.742188 "/>
</clipPath>
</defs>
<g id="surface1">
<g clip-path="url(#clip1)" clip-rule="nonzero">
<path style=" stroke:none;fill-rule:nonzero;fill:rgb(0%,50.19989%,21.569824%);fill-opacity:1;" d="M 12.417969 21.0625 L 4.417969 26.605469 L 4.898438 27.339844 L 11.675781 22.648438 L 8.863281 28.628906 L 27.261719 28.628906 L 24.65625 23.078125 L 30.8125 27.339844 L 31.292969 26.601562 L 23.914062 21.488281 L 21.316406 15.96875 L 31.707031 8.769531 L 31.226562 8.03125 L 21.058594 15.078125 L 21.058594 6.742188 L 15.070312 6.742188 L 15.070312 15.367188 L 4.484375 8.03125 L 4 8.769531 L 14.703125 16.183594 Z M 13.835938 20.078125 L 15.429688 16.6875 L 17.082031 17.832031 Z M 17.855469 18.367188 L 21.902344 21.175781 C 20.636719 21.351562 19.40625 21.222656 18.203125 20.785156 C 17.21875 20.441406 16.207031 20.257812 15.167969 20.230469 Z M 25.882812 27.742188 L 10.242188 27.742188 L 13.09375 21.664062 L 13.777344 21.191406 C 15.191406 21.003906 16.574219 21.148438 17.925781 21.617188 C 18.875 21.957031 19.851562 22.128906 20.859375 22.132812 C 21.550781 22.136719 22.230469 22.046875 22.894531 21.855469 L 23.234375 22.089844 Z M 22.488281 20.507812 L 18.628906 17.832031 L 20.597656 16.46875 Z M 15.933594 15.609375 L 15.933594 7.628906 L 20.195312 7.628906 L 20.195312 15.609375 L 20.21875 15.660156 L 17.855469 17.292969 L 15.808594 15.878906 Z M 15.933594 15.609375 "/>
</g>
</g>
</svg>
