<?xml version="1.0" encoding="UTF-8"?>
<svg xmlns="http://www.w3.org/2000/svg" xmlns:xlink="http://www.w3.org/1999/xlink" width="36pt" height="36.000001pt" viewBox="0 0 36 36.000001" version="1.2">
<defs>
<clipPath id="clip1">
  <path d="M 5.742188 16 L 13 16 L 13 18 L 5.742188 18 Z M 5.742188 16 "/>
</clipPath>
<clipPath id="clip2">
  <path d="M 9 3.503906 L 30.550781 3.503906 L 30.550781 31.234375 L 9 31.234375 Z M 9 3.503906 "/>
</clipPath>
</defs>
<g id="surface1">
<path style=" stroke:none;fill-rule:nonzero;fill:rgb(0%,50.19989%,21.569824%);fill-opacity:1;" d="M 10.652344 19.191406 C 10.410156 19.191406 10.210938 19.386719 10.210938 19.625 C 10.210938 19.863281 10.410156 20.054688 10.652344 20.054688 L 13.109375 20.054688 C 13.355469 20.054688 13.550781 19.863281 13.550781 19.625 C 13.550781 19.386719 13.355469 19.191406 13.109375 19.191406 L 10.652344 19.191406 "/>
<g clip-path="url(#clip1)" clip-rule="nonzero">
<path style=" stroke:none;fill-rule:nonzero;fill:rgb(0%,50.19989%,21.569824%);fill-opacity:1;" d="M 12.515625 17.320312 C 12.515625 17.082031 12.316406 16.886719 12.070312 16.886719 L 6.226562 16.886719 C 5.984375 16.886719 5.785156 17.082031 5.785156 17.320312 C 5.785156 17.558594 5.984375 17.753906 6.226562 17.753906 L 12.070312 17.753906 C 12.316406 17.753906 12.515625 17.558594 12.515625 17.320312 "/>
</g>
<path style=" stroke:none;fill-rule:nonzero;fill:rgb(0%,50.19989%,21.569824%);fill-opacity:1;" d="M 9.175781 13.148438 L 14.035156 13.148438 C 14.28125 13.148438 14.476562 12.953125 14.476562 12.714844 C 14.476562 12.476562 14.28125 12.28125 14.035156 12.28125 L 9.175781 12.28125 C 8.933594 12.28125 8.734375 12.476562 8.734375 12.714844 C 8.734375 12.953125 8.933594 13.148438 9.175781 13.148438 "/>
<g clip-path="url(#clip2)" clip-rule="nonzero">
<path style=" stroke:none;fill-rule:nonzero;fill:rgb(0%,50.19989%,21.569824%);fill-opacity:1;" d="M 26.613281 11.046875 L 25.417969 11.046875 L 25.417969 9.875 L 26.613281 9.871094 Z M 22.945312 14.457031 L 27.785156 14.625 C 27.867188 14.625 27.953125 14.605469 28.027344 14.5625 L 28.59375 14.238281 L 29.621094 14.203125 L 29.621094 15.496094 L 28.238281 15.507812 L 27.539062 15.382812 C 27.515625 15.378906 27.496094 15.382812 27.460938 15.375 C 27.183594 15.375 22.820312 15.578125 22.335938 15.601562 C 22.246094 15.589844 22.144531 15.566406 22.070312 15.503906 L 20.703125 14.316406 L 21.566406 13.414062 L 22.210938 14.132812 C 22.402344 14.316406 22.65625 14.433594 22.945312 14.457031 Z M 17.613281 9.222656 C 16.59375 9.164062 15.773438 8.402344 15.660156 7.398438 L 15.636719 7.25 L 19.492188 6.632812 L 19.492188 6.980469 C 19.363281 9.121094 17.757812 9.21875 17.613281 9.222656 Z M 15.453125 5.738281 C 15.390625 5.191406 15.792969 4.703125 16.347656 4.640625 L 18.273438 4.433594 C 18.3125 4.425781 18.351562 4.425781 18.386719 4.425781 C 18.617188 4.425781 18.839844 4.5 19.019531 4.644531 C 19.230469 4.808594 19.363281 5.042969 19.394531 5.308594 L 19.445312 5.765625 L 15.527344 6.390625 Z M 30.0625 13.019531 C 30.308594 13.019531 30.507812 12.828125 30.507812 12.589844 L 30.507812 9.863281 C 30.507812 9.398438 30.117188 9.015625 29.640625 9.015625 L 22.414062 9.015625 C 21.9375 9.015625 21.550781 9.398438 21.550781 9.863281 L 21.550781 12.078125 C 20.835938 11.296875 19.996094 10.484375 19.6875 10.1875 L 19.59375 10.09375 C 19.457031 9.960938 19.238281 9.800781 18.984375 9.652344 C 19.667969 9.21875 20.289062 8.410156 20.375 7.003906 L 20.375 6.492188 L 22.0625 6.21875 C 22.300781 6.179688 22.464844 5.957031 22.425781 5.722656 C 22.386719 5.488281 22.160156 5.332031 21.917969 5.367188 L 20.320312 5.625 L 20.273438 5.210938 C 20.21875 4.71875 19.96875 4.277344 19.570312 3.96875 C 19.175781 3.65625 18.679688 3.515625 18.175781 3.570312 L 16.25 3.78125 C 15.210938 3.894531 14.457031 4.816406 14.574219 5.832031 L 14.78125 7.507812 C 14.886719 8.425781 15.421875 9.195312 16.1875 9.652344 C 16.105469 9.710938 16.015625 9.765625 15.945312 9.828125 C 15.570312 10.175781 15.371094 10.617188 15.371094 11.105469 C 15.371094 11.503906 15.515625 12.625 15.8125 14.582031 L 14.035156 14.582031 C 13.792969 14.582031 13.59375 14.777344 13.59375 15.015625 C 13.59375 15.253906 13.792969 15.449219 14.035156 15.449219 L 17.433594 15.449219 C 17.675781 15.449219 17.875 15.253906 17.875 15.015625 C 17.875 14.777344 17.675781 14.582031 17.433594 14.582031 L 16.707031 14.582031 C 16.40625 12.636719 16.253906 11.460938 16.253906 11.105469 C 16.253906 10.855469 16.355469 10.640625 16.546875 10.460938 C 16.828125 10.207031 17.265625 10.0625 17.691406 10.09375 C 18.117188 10.121094 18.730469 10.472656 18.96875 10.707031 L 19.066406 10.800781 C 19.382812 11.105469 20.269531 11.960938 20.984375 12.757812 L 20.042969 13.742188 L 19.085938 12.914062 C 18.90625 12.753906 18.625 12.769531 18.464844 12.949219 C 18.300781 13.125 18.320312 13.402344 18.5 13.558594 L 20.445312 15.25 L 20.5625 16.949219 L 18.101562 17.195312 C 17.859375 17.222656 17.679688 17.433594 17.707031 17.667969 C 17.730469 17.890625 17.921875 18.058594 18.144531 18.058594 C 18.160156 18.058594 18.175781 18.058594 18.191406 18.054688 L 20.617188 17.8125 L 20.664062 18.46875 C 20.675781 18.617188 20.761719 18.75 20.894531 18.820312 L 25.015625 20.988281 C 25.191406 21.082031 25.3125 21.246094 25.347656 21.4375 L 26.542969 28.160156 L 25.578125 28.335938 C 25.335938 28.378906 25.179688 28.605469 25.222656 28.839844 C 25.269531 29.074219 25.5 29.230469 25.738281 29.1875 L 27.453125 28.875 C 27.523438 28.859375 27.589844 28.871094 27.640625 28.90625 C 27.6875 28.933594 27.71875 28.984375 27.726562 29.03125 L 27.785156 29.425781 L 25.199219 29.882812 L 23.789062 22.441406 C 23.726562 22.140625 23.492188 21.90625 23.179688 21.839844 C 21.71875 21.550781 19.792969 21.066406 19.179688 20.644531 C 17.816406 19.714844 17.359375 18.785156 17.304688 18.382812 C 17.285156 18.230469 16.945312 16.101562 16.945312 16.101562 C 16.90625 15.863281 16.683594 15.707031 16.441406 15.742188 C 16.199219 15.777344 16.035156 16 16.070312 16.234375 C 16.070312 16.234375 16.394531 18.242188 16.417969 18.421875 L 15.285156 23.464844 C 15.277344 23.496094 15.257812 23.523438 15.234375 23.542969 L 10.953125 26.84375 L 9.960938 27.496094 C 9.945312 27.511719 9.921875 27.527344 9.90625 27.542969 C 9.628906 27.796875 9.582031 28.222656 9.804688 28.523438 L 11.65625 31.050781 C 11.742188 31.167969 11.875 31.234375 12.015625 31.234375 C 12.097656 31.234375 12.183594 31.210938 12.261719 31.160156 L 12.964844 30.699219 C 13.433594 30.371094 13.558594 29.777344 13.28125 29.285156 L 18.082031 25.535156 C 18.234375 25.414062 18.347656 25.253906 18.402344 25.097656 L 19.417969 22.632812 C 19.511719 22.414062 19.402344 22.160156 19.175781 22.070312 C 18.949219 21.980469 18.691406 22.085938 18.601562 22.308594 L 17.574219 24.800781 C 17.5625 24.824219 17.550781 24.84375 17.527344 24.859375 L 12.769531 28.578125 L 12.253906 27.882812 C 12.113281 27.6875 11.835938 27.644531 11.640625 27.78125 C 11.441406 27.921875 11.394531 28.191406 11.539062 28.386719 L 12.492188 29.675781 C 12.558594 29.773438 12.574219 29.910156 12.464844 29.988281 L 12.125 30.207031 L 10.59375 28.121094 L 11.476562 27.542969 L 15.777344 24.21875 C 15.964844 24.078125 16.09375 23.875 16.144531 23.648438 L 17.015625 19.792969 C 17.375 20.292969 17.914062 20.835938 18.671875 21.351562 C 19.542969 21.945312 21.886719 22.464844 22.933594 22.675781 L 24.371094 30.242188 C 24.476562 30.558594 24.78125 30.765625 25.105469 30.765625 C 25.148438 30.765625 25.191406 30.761719 25.238281 30.753906 L 28.363281 30.199219 C 28.601562 30.160156 28.757812 29.941406 28.722656 29.710938 L 28.601562 28.890625 C 28.542969 28.59375 28.378906 28.34375 28.128906 28.183594 C 27.921875 28.050781 27.671875 27.992188 27.417969 28.015625 L 26.21875 21.289062 C 26.136719 20.832031 25.851562 20.445312 25.433594 20.226562 L 21.53125 18.171875 L 21.386719 16.066406 L 21.550781 16.199219 L 21.550781 16.914062 C 21.550781 17.378906 21.9375 17.757812 22.414062 17.757812 L 29.640625 17.757812 C 29.992188 17.757812 30.304688 17.554688 30.441406 17.238281 C 30.535156 17.019531 30.433594 16.757812 30.210938 16.667969 C 29.984375 16.574219 29.734375 16.671875 29.640625 16.894531 L 22.433594 16.914062 L 22.433594 16.460938 C 24.300781 16.375 27.046875 16.253906 27.425781 16.242188 L 28.121094 16.367188 C 28.148438 16.371094 28.179688 16.375 28.203125 16.371094 L 30.070312 16.359375 C 30.3125 16.355469 30.507812 16.164062 30.507812 15.925781 L 30.507812 13.757812 C 30.507812 13.640625 30.457031 13.527344 30.371094 13.445312 C 30.285156 13.367188 30.164062 13.320312 30.050781 13.324219 L 28.453125 13.375 C 28.382812 13.378906 28.308594 13.398438 28.246094 13.433594 L 27.6875 13.753906 L 23 13.59375 C 22.9375 13.589844 22.878906 13.5625 22.855469 13.542969 L 22.433594 13.066406 L 22.414062 9.882812 L 24.535156 9.878906 L 24.535156 11.480469 C 24.535156 11.71875 24.730469 11.914062 24.976562 11.914062 L 27.054688 11.914062 C 27.300781 11.914062 27.496094 11.71875 27.496094 11.480469 L 27.496094 9.871094 L 29.621094 9.863281 L 29.621094 12.589844 C 29.621094 12.828125 29.820312 13.019531 30.0625 13.019531 "/>
</g>
</g>
</svg>
