<?xml version="1.0" encoding="UTF-8"?>
<svg xmlns="http://www.w3.org/2000/svg" xmlns:xlink="http://www.w3.org/1999/xlink" width="36pt" height="36.000001pt" viewBox="0 0 36 36.000001" version="1.2">
<defs>
<clipPath id="clip1">
  <path d="M 3.988281 3.503906 L 31.71875 3.503906 L 31.71875 31.234375 L 3.988281 31.234375 Z M 3.988281 3.503906 "/>
</clipPath>
</defs>
<g id="surface1">
<g clip-path="url(#clip1)" clip-rule="nonzero">
<path style=" stroke:none;fill-rule:nonzero;fill:rgb(0%,50.19989%,21.569824%);fill-opacity:1;" d="M 31.285156 4.863281 L 31.230469 4.421875 C 31.199219 4.171875 31.003906 3.972656 30.753906 3.941406 C 19.996094 2.546875 12.140625 4.511719 7.410156 9.773438 C 4.953125 12.503906 3.816406 15.714844 4.109375 19.046875 C 4.359375 21.847656 5.613281 24.570312 7.660156 26.769531 L 4.148438 30.277344 C 3.933594 30.496094 3.933594 30.84375 4.148438 31.058594 C 4.261719 31.171875 4.398438 31.222656 4.542969 31.222656 C 4.6875 31.222656 4.828125 31.164062 4.9375 31.058594 L 8.449219 27.550781 C 10.640625 29.574219 13.34375 30.8125 16.128906 31.058594 C 16.472656 31.09375 16.824219 31.105469 17.160156 31.105469 C 20.121094 31.105469 22.957031 29.960938 25.402344 27.761719 C 27.902344 25.507812 29.617188 22.753906 30.636719 19.332031 C 31.808594 15.414062 32.023438 10.546875 31.285156 4.863281 Z M 29.574219 19.019531 C 28.613281 22.238281 27.003906 24.832031 24.660156 26.941406 C 22.417969 28.953125 19.839844 30 17.15625 30 C 16.84375 30 16.539062 29.988281 16.222656 29.960938 C 13.699219 29.734375 11.238281 28.609375 9.230469 26.773438 L 13.144531 22.859375 L 23.3125 22.859375 C 23.617188 22.859375 23.867188 22.609375 23.867188 22.304688 C 23.867188 22 23.617188 21.75 23.3125 21.75 L 14.253906 21.75 L 19.3125 16.691406 L 25.535156 16.691406 C 25.839844 16.691406 26.089844 16.441406 26.089844 16.136719 C 26.089844 15.832031 25.839844 15.582031 25.535156 15.582031 L 20.421875 15.582031 L 24.585938 11.417969 C 24.804688 11.199219 24.804688 10.851562 24.585938 10.636719 C 24.371094 10.417969 24.019531 10.417969 23.804688 10.636719 L 19.601562 14.839844 L 19.601562 9.652344 C 19.601562 9.347656 19.351562 9.097656 19.046875 9.097656 C 18.742188 9.097656 18.492188 9.347656 18.492188 9.652344 L 18.492188 15.949219 L 13.472656 20.960938 L 13.472656 11.898438 C 13.472656 11.59375 13.222656 11.34375 12.917969 11.34375 C 12.613281 11.34375 12.363281 11.59375 12.363281 11.898438 L 12.363281 22.066406 L 8.449219 25.980469 C 6.589844 23.96875 5.449219 21.488281 5.21875 18.949219 C 4.953125 15.925781 5.996094 13.007812 8.238281 10.511719 C 11.765625 6.589844 17.1875 4.617188 24.414062 4.617188 C 26.226562 4.617188 28.152344 4.738281 30.1875 4.988281 L 30.1875 5 C 30.902344 10.53125 30.699219 15.25 29.574219 19.019531 Z M 29.574219 19.019531 "/>
</g>
</g>
</svg>
