<?xml version="1.0" encoding="UTF-8"?>
<svg xmlns="http://www.w3.org/2000/svg" xmlns:xlink="http://www.w3.org/1999/xlink" width="36pt" height="36.000001pt" viewBox="0 0 36 36.000001" version="1.2">
<defs>
<clipPath id="clip1">
  <path d="M 4 3.503906 L 31.71875 3.503906 L 31.71875 31.234375 L 4 31.234375 Z M 4 3.503906 "/>
</clipPath>
</defs>
<g id="surface1">
<g clip-path="url(#clip1)" clip-rule="nonzero">
<path style=" stroke:none;fill-rule:nonzero;fill:rgb(0%,50.19989%,21.569824%);fill-opacity:1;" d="M 31.082031 11.210938 C 30.492188 10.613281 29.53125 10.613281 28.945312 11.210938 L 26.683594 13.496094 L 23.667969 8.050781 C 24.710938 7.84375 25.496094 6.914062 25.496094 5.800781 C 25.496094 4.535156 24.480469 3.503906 23.226562 3.503906 L 12.386719 3.503906 C 11.136719 3.503906 10.117188 4.535156 10.117188 5.800781 C 10.117188 6.914062 10.902344 7.84375 11.945312 8.054688 L 8.960938 13.4375 L 6.757812 11.210938 C 6.171875 10.613281 5.210938 10.613281 4.621094 11.210938 C 4.03125 11.804688 4.03125 12.773438 4.621094 13.371094 L 8.582031 17.375 L 8.582031 28.191406 C 8.582031 29.867188 9.929688 31.230469 11.585938 31.230469 L 24.027344 31.230469 C 25.6875 31.230469 27.035156 29.867188 27.035156 28.191406 L 27.035156 17.464844 L 31.082031 13.371094 C 31.667969 12.777344 31.667969 11.804688 31.082031 11.210938 Z M 8.582031 16.054688 L 5.273438 12.710938 C 5.042969 12.480469 5.042969 12.101562 5.273438 11.871094 C 5.503906 11.636719 5.878906 11.636719 6.105469 11.871094 L 8.582031 14.371094 Z M 11.039062 5.800781 C 11.039062 5.046875 11.644531 4.4375 12.386719 4.4375 L 23.226562 4.4375 C 23.972656 4.4375 24.578125 5.046875 24.578125 5.800781 C 24.578125 6.554688 23.972656 7.164062 23.226562 7.164062 L 12.386719 7.164062 C 11.644531 7.164062 11.039062 6.554688 11.039062 5.800781 Z M 12.976562 8.097656 L 22.636719 8.097656 L 25.789062 13.785156 L 9.828125 13.785156 Z M 26.113281 28.191406 C 26.113281 29.351562 25.179688 30.296875 24.027344 30.296875 L 11.585938 30.296875 C 10.4375 30.296875 9.503906 29.351562 9.503906 28.191406 L 9.503906 14.714844 L 26.113281 14.714844 Z M 30.429688 12.710938 L 27.035156 16.144531 L 27.035156 14.460938 L 29.59375 11.871094 C 29.824219 11.636719 30.199219 11.636719 30.429688 11.867188 C 30.660156 12.101562 30.65625 12.480469 30.429688 12.710938 Z M 30.429688 12.710938 "/>
</g>
<path style=" stroke:none;fill-rule:nonzero;fill:rgb(0%,50.19989%,21.569824%);fill-opacity:1;" d="M 12.1875 22.605469 C 11.925781 22.929688 11.800781 23.34375 11.84375 23.765625 C 11.882812 24.183594 12.085938 24.5625 12.40625 24.832031 C 12.6875 25.0625 13.039062 25.191406 13.398438 25.191406 C 13.871094 25.191406 14.3125 24.980469 14.628906 24.585938 L 14.785156 24.367188 C 15.246094 24.625 15.734375 24.820312 16.242188 24.953125 L 16.242188 25.269531 C 16.242188 26.144531 16.945312 26.851562 17.808594 26.851562 C 18.671875 26.851562 19.371094 26.144531 19.371094 25.269531 L 19.371094 24.953125 C 19.882812 24.820312 20.371094 24.625 20.832031 24.367188 L 21.003906 24.609375 C 21.304688 24.980469 21.746094 25.191406 22.214844 25.191406 C 22.574219 25.191406 22.925781 25.0625 23.207031 24.832031 C 23.875 24.277344 23.972656 23.28125 23.441406 22.621094 L 23.109375 22.171875 C 23.726562 21.171875 24.050781 20.027344 24.050781 18.839844 L 24.050781 18.375 L 11.5625 18.375 L 11.5625 18.839844 C 11.5625 20.027344 11.886719 21.171875 12.503906 22.171875 Z M 23.109375 19.304688 C 23.03125 20.246094 22.707031 21.140625 22.171875 21.917969 L 21.980469 22.195312 L 22.710938 23.195312 C 22.9375 23.472656 22.898438 23.882812 22.621094 24.109375 C 22.507812 24.207031 22.367188 24.257812 22.214844 24.257812 C 22.023438 24.257812 21.839844 24.171875 21.734375 24.042969 L 21.074219 23.109375 L 20.703125 23.355469 C 20.128906 23.734375 19.496094 23.992188 18.824219 24.121094 L 18.449219 24.195312 L 18.449219 25.269531 C 18.449219 25.628906 18.160156 25.917969 17.808594 25.917969 C 17.453125 25.917969 17.164062 25.628906 17.164062 25.269531 L 17.164062 24.195312 L 16.792969 24.121094 C 16.121094 23.992188 15.488281 23.734375 14.910156 23.355469 L 14.542969 23.109375 L 13.898438 24.019531 C 13.679688 24.285156 13.257812 24.332031 12.992188 24.109375 C 12.859375 24 12.777344 23.84375 12.761719 23.671875 C 12.742188 23.5 12.792969 23.328125 12.917969 23.175781 L 13.632812 22.195312 L 13.445312 21.921875 C 12.90625 21.140625 12.585938 20.246094 12.503906 19.304688 Z M 23.109375 19.304688 "/>
</g>
</svg>
